<?xml version="1.0" encoding="UTF-8" standalone="no"?>
<svg
   xmlns:dc="http://purl.org/dc/elements/1.1/"
   xmlns:cc="http://creativecommons.org/ns#"
   xmlns:rdf="http://www.w3.org/1999/02/22-rdf-syntax-ns#"
   xmlns:svg="http://www.w3.org/2000/svg"
   xmlns="http://www.w3.org/2000/svg"
   xmlns:sodipodi="http://sodipodi.sourceforge.net/DTD/sodipodi-0.dtd"
   xmlns:inkscape="http://www.inkscape.org/namespaces/inkscape"
   width="62.100349mm"
   height="25.5mm"
   viewBox="0 0 62.100348 25.5"
   version="1.1"
   id="svg8"
   inkscape:version="1.0.2-2 (e86c870879, 2021-01-15)"
   sodipodi:docname="AM7020(SIM7020E)_pcb.svg">
  <defs
     id="defs2" />
  <sodipodi:namedview
     id="base"
     pagecolor="#8cffff"
     bordercolor="#666666"
     borderopacity="1.0"
     inkscape:pageopacity="0"
     inkscape:pageshadow="2"
     inkscape:zoom="4.6446678"
     inkscape:cx="120.22011"
     inkscape:cy="58.86484"
     inkscape:document-units="mm"
     inkscape:current-layer="copper0"
     inkscape:document-rotation="0"
     showgrid="true"
     objecttolerance="19.3"
     gridtolerance="12.9"
     inkscape:snap-grids="false"
     inkscape:snap-to-guides="true"
     inkscape:snap-object-midpoints="true"
     inkscape:snap-others="true"
     inkscape:window-width="1920"
     inkscape:window-height="1017"
     inkscape:window-x="-8"
     inkscape:window-y="-8"
     inkscape:window-maximized="1"
     inkscape:pagecheckerboard="false"
     fit-margin-top="0"
     fit-margin-left="0"
     fit-margin-right="0"
     fit-margin-bottom="0">
    <inkscape:grid
       type="xygrid"
       id="grid1269"
       units="mm"
       spacingx="2.54"
       spacingy="2.54"
       originx="-151.83307"
       originy="-33.670712" />
  </sodipodi:namedview>
  <metadata
     id="metadata5">
    <rdf:RDF>
      <cc:Work
         rdf:about="">
        <dc:format>image/svg+xml</dc:format>
        <dc:type
           rdf:resource="http://purl.org/dc/dcmitype/StillImage" />
        <dc:title></dc:title>
      </cc:Work>
    </rdf:RDF>
  </metadata>
  <g
     inkscape:label="Layer 1"
     inkscape:groupmode="layer"
     id="layer1"
     transform="translate(-151.83307,-33.670715)"
     style="display:inline">
    <g
       inkscape:groupmode="layer"
       id="silkscreen"
       inkscape:label="Layer 4">
      <path
         id="rect1187"
         style="fill:none;fill-opacity:1;stroke:#000000;stroke-width:0.1;stroke-linejoin:miter;stroke-miterlimit:4;stroke-dasharray:none;stroke-opacity:1;paint-order:markers fill stroke"
         d="m 152.72902,33.720715 c -0.46862,0 -0.84595,0.377322 -0.84595,0.845944 v 23.708114 c 0,0.468619 0.37733,0.845942 0.84595,0.845942 h 18.30844 c 0.46862,0 0.84594,-0.377323 0.84594,-0.845942 V 34.566659 c 0,-0.468622 -0.37732,-0.845944 -0.84594,-0.845944 z m 1.79524,1.390097 a 1.125,1.125 0 0 1 1.12499,1.124995 1.125,1.125 0 0 1 -1.12499,1.124998 1.125,1.125 0 0 1 -1.125,-1.124998 1.125,1.125 0 0 1 1.125,-1.124995 z m -0.0243,20.370331 a 1.125,1.125 0 0 1 5.3e-4,0 1.125,1.125 0 0 1 0.0238,0 1.125,1.125 0 0 1 1.12499,1.124998 1.125,1.125 0 0 1 -1.12499,1.124995 1.125,1.125 0 0 1 -1.125,-1.124995 1.125,1.125 0 0 1 1.10071,-1.124998 z" />
      <path
         id="rect1183"
         style="fill:none;fill-opacity:1;stroke:#000000;stroke-width:0.1;stroke-linejoin:miter;stroke-miterlimit:4;stroke-dasharray:none;stroke-opacity:1;paint-order:markers fill stroke"
         d="m 172.72935,33.720715 c -0.46862,0 -0.84595,0.377322 -0.84595,0.845944 v 23.708114 c 0,0.468619 0.37733,0.845942 0.84595,0.845942 h 40.30813 c 0.46862,0 0.84594,-0.377323 0.84594,-0.845942 V 34.566659 c 0,-0.468622 -0.37732,-0.845944 -0.84594,-0.845944 z m 38.48912,1.390097 a 1.125,1.125 0 0 1 0.0238,0 1.125,1.125 0 0 1 1.125,1.124995 1.125,1.125 0 0 1 -1.125,1.124998 1.125,1.125 0 0 1 -1.12499,-1.124998 1.125,1.125 0 0 1 1.10122,-1.124995 z m 0,20.370331 a 1.125,1.125 0 0 1 0.0238,0 1.125,1.125 0 0 1 1.125,1.124998 1.125,1.125 0 0 1 -1.125,1.124995 1.125,1.125 0 0 1 -1.12499,-1.124995 1.125,1.125 0 0 1 1.10122,-1.124998 z" />
    </g>
    <g
       inkscape:groupmode="layer"
       id="copper1"
       inkscape:label="Layer 2">
      <g
         inkscape:groupmode="layer"
         id="copper0"
         inkscape:label="Layer 3">
        <circle
           style="fill:#f7bd13;fill-opacity:1;stroke-width:0.0679073;paint-order:markers fill stroke"
           id="circle1207"
           cx="176.74086"
           cy="36.261101"
           r="0.85000002" />
        <circle
           style="fill:#f7bd13;fill-opacity:1;stroke-width:0.0679073;paint-order:markers fill stroke"
           id="circle1213"
           cx="179.19086"
           cy="36.261101"
           r="0.85000002" />
        <circle
           style="fill:#f7bd13;fill-opacity:1;stroke-width:0.0679073;paint-order:markers fill stroke"
           id="circle1219"
           cx="181.64085"
           cy="36.261101"
           r="0.85000002" />
        <circle
           style="fill:#f7bd13;fill-opacity:1;stroke-width:0.0679073;paint-order:markers fill stroke"
           id="circle1225"
           cx="184.09085"
           cy="36.261101"
           r="0.85000002" />
        <circle
           style="fill:#f7bd13;fill-opacity:1;stroke-width:0.0679073;paint-order:markers fill stroke"
           id="circle1231"
           cx="186.54083"
           cy="36.261101"
           r="0.85000002" />
        <circle
           style="fill:#f7bd13;fill-opacity:1;stroke-width:0.0679073;paint-order:markers fill stroke"
           id="circle1237"
           cx="188.99083"
           cy="36.261101"
           r="0.85000002" />
        <circle
           style="fill:#f7bd13;fill-opacity:1;stroke-width:0.0679073;paint-order:markers fill stroke"
           id="circle1252"
           cx="174.29088"
           cy="41.340725"
           r="0.85000002" />
        <circle
           style="fill:#f7bd13;fill-opacity:1;stroke-width:0.0679073;paint-order:markers fill stroke"
           id="circle1258"
           cx="174.29088"
           cy="46.420734"
           r="0.85000002" />
        <circle
           style="fill:#f7bd13;fill-opacity:1;stroke-width:0.0679073;paint-order:markers fill stroke"
           id="circle1264"
           cx="174.29088"
           cy="43.880722"
           r="0.85000002" />
        <circle
           style="fill:#f7bd13;fill-opacity:1;stroke-width:0.0679073;paint-order:markers fill stroke"
           id="circle1270"
           cx="176.74086"
           cy="56.580727"
           r="0.85000002" />
        <circle
           style="fill:#f7bd13;fill-opacity:1;stroke-width:0.0679073;paint-order:markers fill stroke"
           id="circle1288"
           cx="174.29088"
           cy="48.960728"
           r="0.85000002" />
        <circle
           style="fill:#f7bd13;fill-opacity:1;stroke-width:0.0679073;paint-order:markers fill stroke"
           id="circle1294"
           cx="181.64085"
           cy="56.580727"
           r="0.85000002" />
        <circle
           style="fill:#f7bd13;fill-opacity:1;stroke-width:0.0679073;paint-order:markers fill stroke"
           id="circle1318"
           cx="179.19086"
           cy="56.580727"
           r="0.85000002" />
        <circle
           style="fill:#f7bd13;fill-opacity:1;stroke-width:0.0679073;paint-order:markers fill stroke"
           id="circle1324"
           cx="184.09085"
           cy="56.580727"
           r="0.85000002" />
        <circle
           style="fill:#f7bd13;fill-opacity:1;stroke-width:0.0679073;paint-order:markers fill stroke"
           id="circle1330"
           cx="186.54083"
           cy="56.580727"
           r="0.85000002" />
        <circle
           style="fill:#f7bd13;fill-opacity:1;stroke-width:0.0679073;paint-order:markers fill stroke"
           id="circle1336"
           cx="188.99083"
           cy="56.580727"
           r="0.85000002" />
        <circle
           style="fill:#f7bd13;fill-opacity:1;fill-rule:nonzero;stroke:none;stroke-width:0.237;stroke-linejoin:bevel;stroke-miterlimit:4;stroke-dasharray:none;stroke-dashoffset:0;stroke-opacity:1;paint-order:markers fill stroke"
           id="path9990"
           cx="211.87175"
           cy="40.685539"
           r="0.13224235" />
        <rect
           style="fill:#f7bd13;fill-opacity:1;stroke-width:0.584799;stroke-linejoin:bevel;stroke-dasharray:4.67839, 1.16959, 0.584799, 1.16959;paint-order:markers fill stroke"
           id="rect13453"
           width="0.77881682"
           height="0.77881682"
           x="-49.99522"
           y="157.25305"
           transform="rotate(-90)" />
        <rect
           style="fill:#f7bd13;fill-opacity:1;stroke-width:0.584799;stroke-linejoin:bevel;stroke-dasharray:4.67839, 1.16959, 0.584799, 1.16959;paint-order:markers fill stroke"
           id="rect13455"
           width="0.77881682"
           height="0.77881682"
           x="-47.996166"
           y="157.25305"
           transform="rotate(-90)" />
        <rect
           style="fill:#f7bd13;fill-opacity:1;stroke-width:0.584799;stroke-linejoin:bevel;stroke-dasharray:4.67839, 1.16959, 0.584799, 1.16959;paint-order:markers fill stroke"
           id="rect13457"
           width="0.77881682"
           height="0.77881682"
           x="-45.997124"
           y="157.25305"
           transform="rotate(-90)" />
        <rect
           style="fill:#f7bd13;fill-opacity:1;stroke-width:0.584799;stroke-linejoin:bevel;stroke-dasharray:4.67839, 1.16959, 0.584799, 1.16959;paint-order:markers fill stroke"
           id="rect13459"
           width="0.77881682"
           height="0.77881682"
           x="-43.99807"
           y="157.25305"
           transform="rotate(-90)" />
        <circle
           style="display:inline;fill:#f7bd13;fill-opacity:1;stroke-width:0.0679073;paint-order:markers fill stroke"
           id="circle860"
           cx="174.29088"
           cy="51.500725"
           r="0.85000002" />
        <circle
           style="fill:#f7bd13;fill-opacity:1;stroke-width:0.0679073;paint-order:markers fill stroke"
           id="circle862"
           cx="174.29088"
           cy="36.261101"
           r="0.85000002" />
        <circle
           style="display:inline;fill:#f7bd13;fill-opacity:1;stroke-width:0.0679073;paint-order:markers fill stroke"
           id="circle864"
           cx="174.29088"
           cy="56.580727"
           r="0.85000002" />
      </g>
    </g>
  </g>
</svg>
